<svg width="58" height="58" viewBox="0 0 58 58" fill="none" xmlns="http://www.w3.org/2000/svg">
<circle cx="29" cy="29" r="29" fill="#BA7A39"/>
<path d="M21.131 10.133C19.1094 10.2283 17.7289 10.551 16.5219 11.0251C15.2729 11.512 14.2142 12.1651 13.1608 13.2223C12.1075 14.2795 11.4587 15.3389 10.9755 16.59C10.5077 17.7994 10.1908 19.1811 10.1015 21.2039C10.0122 23.2266 9.99237 23.8768 10.0023 29.0366C10.0122 34.1961 10.035 34.8428 10.133 36.8698C10.2296 38.891 10.551 40.2711 11.0252 41.4784C11.5128 42.7275 12.1652 43.7858 13.2228 44.8395C14.2804 45.8932 15.339 46.5405 16.593 47.0245C17.8014 47.4916 19.1835 47.81 21.2059 47.8985C23.2282 47.9872 23.8792 48.0078 29.0373 47.9978C34.1955 47.988 34.845 47.965 36.8714 47.8689C38.898 47.7728 40.2708 47.449 41.4785 46.977C42.7276 46.4884 43.7867 45.837 44.8396 44.7792C45.8926 43.7212 46.5409 42.661 47.0238 41.4092C47.492 40.2008 47.8101 38.8189 47.8978 36.7979C47.9865 34.7698 48.0074 34.1224 47.9976 28.9636C47.9876 23.8046 47.9643 23.1578 47.8682 21.1317C47.7721 19.1055 47.4502 17.7295 46.9763 16.5215C46.488 15.2724 45.8363 14.2149 44.7793 13.1604C43.7221 12.1059 42.661 11.458 41.4098 10.9762C40.2005 10.5083 38.8193 10.1896 36.7969 10.1022C34.7745 10.0148 34.1236 9.99211 28.9636 10.0022C23.8035 10.0121 23.1575 10.0342 21.131 10.133ZM21.3529 44.4804C19.5004 44.3998 18.4946 44.092 17.8242 43.8344C16.9366 43.4924 16.3042 43.079 15.6362 42.4174C14.968 41.7558 14.5578 41.1212 14.2112 40.2355C13.9509 39.5651 13.6374 38.5603 13.5508 36.7078C13.4565 34.7057 13.4368 34.1045 13.4257 29.0319C13.4146 23.9593 13.4341 23.3588 13.5218 21.3559C13.6009 19.5049 13.9106 18.4979 14.1678 17.8279C14.5098 16.9391 14.9218 16.3079 15.5849 15.6403C16.248 14.9726 16.8807 14.5615 17.7672 14.2149C18.4369 13.9535 19.4415 13.6426 21.2933 13.5545C23.297 13.4595 23.8974 13.4405 28.9693 13.4294C34.0411 13.4183 34.6431 13.4373 36.6476 13.5256C38.4985 13.6061 39.506 13.9128 40.1753 14.1716C41.0632 14.5136 41.6953 14.9244 42.3628 15.5887C43.0305 16.2528 43.442 16.8833 43.7886 17.7717C44.0503 18.4394 44.3613 19.4437 44.4487 21.2966C44.544 23.3003 44.5657 23.9012 44.5747 28.9726C44.5839 34.0441 44.566 34.6464 44.4782 36.6486C44.3974 38.5011 44.0902 39.5073 43.8322 40.1785C43.4902 41.0658 43.078 41.6985 42.4144 42.3657C41.751 43.0331 41.1191 43.4441 40.2321 43.7907C39.5633 44.0518 38.5574 44.3634 36.7073 44.4516C34.7035 44.5458 34.1031 44.5656 29.0293 44.5767C23.9555 44.5878 23.3567 44.5672 21.3529 44.4804ZM36.8422 18.8452C36.843 19.2961 36.9775 19.7368 37.2286 20.1113C37.4798 20.4859 37.8365 20.7775 38.2534 20.9493C38.6704 21.1212 39.1289 21.1655 39.5711 21.0767C40.0133 20.9879 40.4191 20.77 40.7374 20.4505C41.0557 20.131 41.2721 19.7243 41.3593 19.2819C41.4464 18.8394 41.4003 18.381 41.2269 17.9647C41.0535 17.5484 40.7606 17.1928 40.3851 16.943C40.0096 16.6932 39.5685 16.5604 39.1175 16.5614C38.5129 16.5626 37.9337 16.8039 37.507 17.2322C37.0803 17.6604 36.8412 18.2406 36.8422 18.8452ZM19.2443 29.019C19.2549 34.4074 23.631 38.7656 29.0182 38.7554C34.4056 38.7451 38.7668 34.3694 38.7566 28.981C38.7463 23.5926 34.3692 19.2332 28.9811 19.2438C23.593 19.2545 19.2341 23.6313 19.2443 29.019ZM22.6666 29.0122C22.6642 27.7596 23.0332 26.5344 23.727 25.4915C24.4209 24.4486 25.4084 23.6349 26.5647 23.1533C27.721 22.6717 28.9942 22.5437 30.2232 22.7856C31.4522 23.0276 32.5819 23.6285 33.4694 24.5125C34.3569 25.3965 34.9623 26.5237 35.2091 27.7518C35.4559 28.9798 35.3331 30.2535 34.856 31.4117C34.379 32.5699 33.5692 33.5607 32.5291 34.2587C31.489 34.9566 30.2652 35.3305 29.0126 35.333C28.1809 35.3348 27.357 35.1727 26.5879 34.856C25.8188 34.5392 25.1196 34.0741 24.5303 33.4871C23.941 32.9002 23.4731 32.2029 23.1534 31.4351C22.8336 30.6672 22.6682 29.844 22.6666 29.0122Z" fill="white"/>
</svg>
