<svg width="58" height="58" viewBox="0 0 58 58" fill="none" xmlns="http://www.w3.org/2000/svg">
<circle cx="29" cy="29" r="29" fill="#BA7A39"/>
<path d="M29 16.4287C22.3517 16.4284 18.1966 22.9759 21.5205 28.2142C24.8444 33.4525 33.1547 33.4528 36.4791 28.2148C37.2372 27.0203 37.6364 25.6652 37.6364 24.2859C37.6364 19.9463 33.7699 16.4285 29 16.4287ZM29 29.0002C25.011 29.0004 22.518 25.0719 24.5123 21.9289C26.5066 18.7859 31.4928 18.7857 33.4875 21.9285C33.9423 22.6453 34.1818 23.4583 34.1818 24.2859C34.1818 26.8895 31.8617 29.0001 29 29.0002ZM29 7C18.5115 7.01082 10.0119 14.7437 10 24.2859C10 30.4538 13.1328 36.991 19.0682 43.1923C21.7351 45.9945 24.7368 48.5178 28.0176 50.7156C28.6126 51.0948 29.4047 51.0948 29.9997 50.7156C33.2745 48.5169 36.2703 45.9937 38.9318 43.1923C44.8585 36.991 48 30.4538 48 24.2859C47.9881 14.7437 39.4885 7.01082 29 7ZM29 47.4647C25.431 44.9111 13.4545 35.5315 13.4545 24.2859C13.4545 13.3986 26.4091 6.59404 36.7727 12.0377C41.5825 14.5641 44.5454 19.2331 44.5454 24.2859C44.5454 35.5276 32.569 44.9111 29 47.4647Z" fill="white"/>
</svg>
