<svg width="58" height="58" viewBox="0 0 58 58" fill="none" xmlns="http://www.w3.org/2000/svg">
<circle cx="29" cy="29" r="29" fill="#BA7A39"/>
<path d="M37.7053 32.7715C37.2328 32.5356 34.9085 31.3988 34.4758 31.2404C34.0415 31.0837 33.7265 31.0061 33.4099 31.4779C33.0965 31.9482 32.1897 33.0074 31.9145 33.3209C31.6392 33.636 31.3624 33.674 30.8899 33.4397C30.4174 33.2022 28.8934 32.7066 27.0877 31.1043C25.683 29.8566 24.7332 28.316 24.458 27.8442C24.1828 27.374 24.4293 27.119 24.6648 26.8847C24.878 26.6741 25.1389 26.3353 25.3743 26.0614C25.6114 25.7859 25.6893 25.5895 25.8484 25.2745C26.0059 24.961 25.928 24.687 25.8086 24.4511C25.6893 24.2152 24.7443 21.8988 24.3514 20.9567C23.9664 20.04 23.5766 20.165 23.2871 20.1492C23.0119 20.1365 22.6969 20.1334 22.3803 20.1334C22.0653 20.1334 21.553 20.2505 21.1203 20.7224C20.6876 21.1926 19.4658 22.331 19.4658 24.6475C19.4658 26.9623 21.1601 29.1995 21.3955 29.5146C21.6326 29.8281 24.73 34.5813 29.4724 36.619C30.6004 37.1035 31.4801 37.3933 32.1674 37.6086C33.3001 37.968 34.331 37.9174 35.144 37.7954C36.0524 37.6609 37.9407 36.657 38.3353 35.5582C38.7298 34.4594 38.7298 33.5173 38.6105 33.3209C38.4928 33.1246 38.1794 33.0074 37.7053 32.7715ZM29.0795 44.4929H29.0731C26.2569 44.4932 23.4924 43.7396 21.0694 42.3111L20.4951 41.9723L14.5436 43.5271L16.1313 37.7511L15.7574 37.1589C14.1831 34.664 13.3503 31.7767 13.3552 28.8306C13.3568 20.2015 20.4123 13.181 29.0859 13.181C33.2858 13.181 37.2344 14.8118 40.203 17.7695C41.6677 19.2208 42.8286 20.9468 43.6186 22.8476C44.4086 24.7484 44.812 26.7863 44.8054 28.8433C44.8006 37.4724 37.7466 44.4929 29.0795 44.4929ZM42.4636 15.5227C40.7108 13.7667 38.6252 12.3743 36.3277 11.4263C34.0302 10.4783 31.5666 9.99355 29.0795 10.0001C18.6512 10.0001 10.1639 18.4471 10.1591 28.829C10.1591 32.1477 11.0293 35.3872 12.6854 38.2419L10 48L20.0305 45.3812C22.8044 46.8852 25.9127 47.6734 29.0715 47.6738H29.0795C39.5062 47.6738 47.9951 39.2268 47.9999 28.8433C48.0076 26.369 47.5223 23.9177 46.572 21.6313C45.6217 19.3448 44.2253 17.2686 42.4636 15.5227Z" fill="white"/>
</svg>
